<?xml version="1.0" encoding="UTF-8"?><svg xmlns="http://www.w3.org/2000/svg" viewBox="0 0 96 96"><path d="M73,49A10,10,0,1,1,63,39,10,10,0,0,1,73,49ZM96,16V80A10,10,0,0,1,86,90H10A10,10,0,0,1,0,80V16A10,10,0,0,1,10,6H86A10,10,0,0,1,96,16ZM6,32a2,2,0,0,0,2,2h6a2,2,0,0,0,2-2V28a2,2,0,0,0-2-2H8a2,2,0,0,0-2,2ZM6,44a2,2,0,0,0,2,2h6a2,2,0,0,0,2-2V40a2,2,0,0,0-2-2H8a2,2,0,0,0-2,2ZM6,56a2,2,0,0,0,2,2h6a2,2,0,0,0,2-2V52a2,2,0,0,0-2-2H8a2,2,0,0,0-2,2ZM30,71a2.9,2.9,0,0,0-3-3H9a3,3,0,0,0,0,6H27A2.9,2.9,0,0,0,30,71Zm0-19a2,2,0,0,0-2-2H22a2,2,0,0,0-2,2v4a2,2,0,0,0,2,2h6a2,2,0,0,0,2-2Zm0-12a2,2,0,0,0-2-2H22a2,2,0,0,0-2,2v4a2,2,0,0,0,2,2h6a2,2,0,0,0,2-2Zm0-12a2,2,0,0,0-2-2H22a2,2,0,0,0-2,2v4a2,2,0,0,0,2,2h6a2,2,0,0,0,2-2ZM90,49A27,27,0,1,0,63,76,27,27,0,0,0,90,49Z"/></svg>
