<?xml version="1.0" encoding="utf-8"?><svg version="1.1" xmlns="http://www.w3.org/2000/svg" viewBox="0 0 2400 360"><defs><style> .st0{fill:#F4EBFF}.st1{fill:#CAAAF7}.st2{fill:#E1D0FA}.st3{fill:#BE97F5}.st4{fill:#DCC6FA}.st5{fill:#6F30C9}.st6{fill:#4A2085}.st7{fill:#5A27A2}.st8{fill:#8338EC}.st9{fill:#EDE3FC}.st10{fill:#666666}.st11{fill:#C4A0F6}.st12{fill:#808080}.st13{fill:#1A1A1A}.st14{fill:#CCCCD0}.st15{fill:#9554EF}.st16{fill:#A671F1}.st17{fill:#48FFF1}.st18{fill:#36BFB5}.st19{fill:#B284F3}.st20{fill:#A167F1}.st21{fill:#FFE2F1}.st22{fill:#FF92C1}.st23{fill:#FFC2DC}.st24{fill:#FF86BA}.st25{fill:#FF3D91}.st26{fill:#FF187C}.st27{fill:#D9005E}.st28{fill:#85B4FF}.st29{fill:#214B8F}.st30{fill:#285CAF}.st31{fill:#72A9FF}.st32{fill:#3A86FF}.st33{fill:#ABCBFF}.st34{fill:#EAF4FF}.st35{fill:#A3DBF3}.st36{fill:#FFFCE4}.st37{fill:#FEE396}.st38{fill:#FEDA74}.st39{fill:#FFF0C5}.st40{fill:#FED768}.st41{fill:#FDC422}.st42{fill:#D7A209}.st43{fill:#193B70}</style></defs><path class="st0" d="M574.5,189.2c7.3,4.2,7.3,10.9,0.1,15.2L370.8,322.8c-7.2,4.2-18.9,4.2-26.3,0l-319-184.2 c-7.2-4.2-7.3-11-0.1-15.3L229.3,4.9c7.2-4.2,19-4.2,26.3,0L574.5,189.2z"/><path class="st1" d="M574.6,204.3L370.8,322.8c-7.2,4.2-18.9,4.2-26.3,0l-319-184.2c-3.7-2.1-5.5-4.9-5.5-7.7v32.3 c0,2.8,1.8,5.5,5.5,7.6l318.9,184.2c7.2,4.2,19,4.2,26.3,0l203.9-118.5c3.6-2.1,5.4-4.8,5.4-7.5v-32.3 C580,199.5,578.2,202.2,574.6,204.3z"/><path class="st2" d="M516.8,188.5c17.9,10.2,18,26.8,0.2,37.2c-17.8,10.3-46.4,10.2-64.2,0s-17.9-26.9-0.2-37.2 C470.2,178.3,499,178.2,516.8,188.5z"/><path class="st3" d="M512.6,204.9v2.2c0,4.1-2.7,8.2-8.1,11.3c-10.8,6.3-28.4,6.3-39.3,0c-5.5-3.2-8.2-7.3-8.2-11.5v-2.2 c0,4.2,2.7,8.3,8.2,11.5c10.9,6.3,28.5,6.3,39.3,0C509.9,213,512.6,209,512.6,204.9z"/><path class="st1" d="M504.4,193.4c10.9,6.3,10.9,16.5,0.1,22.8c-10.8,6.3-28.4,6.3-39.3,0c-10.9-6.3-11-16.5-0.2-22.8 C475.8,187.1,493.5,187.1,504.4,193.4z"/><path class="st3" d="M464.6,168.8v4.5c0,18.4-12.2,36.9-36.3,50.9c-48.8,28.4-128,28.4-177.1,0c-24.6-14.2-37-32.9-36.9-51.6v-4.5 c-0.1,18.6,12.3,37.4,37,51.6c49,28.4,128.2,28.4,177,0C452.4,205.7,464.6,187.2,464.6,168.8z"/><ellipse transform="matrix(3.490598e-03 -1 1 3.490598e-03 169.8817 507.701)" class="st4" cx="339.7" cy="168.6" rx="72.5" ry="125.1"/><path class="st5" d="M459.9,167.2v2.2c0,17.8-11.7,35.5-35.1,49.1c-46.8,27.2-123.2,27.2-170.4,0c-23.8-13.7-35.6-31.7-35.5-49.7 v-2.2c-0.1,18,11.8,36,35.5,49.7c47.2,27.2,123.6,27.2,170.5,0C448.2,202.6,459.9,184.9,459.9,167.2z"/><path class="st6" d="M424.4,117.4c47.2,27.3,47.4,71.5,0.6,98.8s-123.3,27.2-170.5,0s-47.4-71.5-0.5-98.8S377.2,90.2,424.4,117.4z M304.7,187c19.3,11.1,50.4,11.1,69.5,0c19.1-11.1,19.1-29.2-0.2-40.3c-19.3-11.1-50.4-11.1-69.5,0S285.5,175.8,304.7,187"/><path class="st7" d="M374.1,146.7c19.3,11.1,19.4,29.2,0.2,40.3c-19.2,11.1-50.2,11.1-69.5,0c-19.3-11.1-19.3-29.2-0.2-40.3 S354.8,135.6,374.1,146.7z M310.8,183.4c15.9,9.2,41.5,9.2,57.4,0s15.6-24-0.2-33.1s-41.5-9.2-57.3,0S295,174.2,310.8,183.4"/><path class="st8" d="M368,150.3c15.8,9.1,15.9,23.9,0.2,33.1s-41.4,9.2-57.4,0c-15.9-9.2-15.9-23.9-0.1-33.1S352.1,141.1,368,150.3z M337.4,168c1.3,0.6,2.8,0.6,4.1,0c0.7-0.2,1.1-0.9,0.9-1.6c-0.1-0.4-0.4-0.7-0.9-0.9c-1.3-0.7-2.8-0.7-4.1,0 c-0.7,0.2-1.1,0.9-0.9,1.6C336.6,167.6,337,167.9,337.4,168"/><path class="st9" d="M342.2,166.3c-0.2-0.3-0.5-0.5-0.8-0.7c-1.3-0.6-2.8-0.6-4.1,0c-0.3,0.2-0.6,0.4-0.8,0.7v0.2 c-0.1,0.1-0.1,0.2-0.1,0.3c0,0.5,0.3,0.9,0.9,1.3c1.3,0.6,2.8,0.6,4.1,0l0.4-0.3l0.3-0.3c0.1-0.2,0.2-0.3,0.2-0.5 C342.3,166.7,342.3,166.5,342.2,166.3z"/><path class="st10" d="M506.9,188.1v-7.5l0,0V188.1z"/><polygon class="st8" points="508.8,188.8 508.7,196.3 506.9,188.2 506.9,180.7 "/><path class="st11" d="M542.6,189.8h-1.9v7.5h1.8c1,0,1.7-0.5,1.7-1.1v-7.5C544.2,189.4,543.4,189.8,542.6,189.8z"/><path class="st2" d="M543,183.8c0.4,0.2,0.6,0.4,0.6,0.7l0.7,4.2c0.1,0.6-0.7,1.2-1.6,1.2h-1.9l-0.5-3.2l-0.5-3.2h1.8 C542,183.4,542.5,183.5,543,183.8z"/><path class="st2" d="M507.5,186l0.8,5.3l-6.5,0.4l-0.4-2.5v-0.4l-0.4-2.5L507.5,186z"/><polygon class="st11" points="508.3,191.3 508.3,198.9 501.8,199.2 501.8,191.7 "/><path class="st8" d="M539.4,192l-28.6,1.4c-0.5,0-1-0.1-1.4-0.4c-0.3-0.1-0.5-0.3-0.6-0.6l-0.5-3v11.3l0.5,2.9 c0,0.3,0.2,0.5,0.5,0.7c0.5,0.3,1,0.4,1.5,0.3l28.6-1.4c1,0,1.7-0.5,1.7-1.1v-11.2C541.1,191.4,540.4,191.9,539.4,192z"/><path class="st1" d="M538.7,178.4c0.3,0.1,0.5,0.4,0.6,0.7l0.9,5.9l0.5,3.2l0.5,2.7c0.1,0.6-0.7,1.1-1.7,1.2l-28.6,1.4 c-0.5,0-1-0.1-1.4-0.4c-0.3-0.1-0.5-0.3-0.6-0.6l-0.5-3l-0.8-5.3l-0.6-3.5c-0.1-0.7,0.7-1.2,1.6-1.2l28.7-1.4 C537.8,178,538.3,178.1,538.7,178.4z"/><path class="st12" d="M505.1,196.3v-7.5c0,0.1,0.1,0.1,0.1,0.2L505.1,196.3L505.1,196.3z"/><path class="st9" d="M284.3,187.7c1,0.6,1.4,1.4,0.9,2.3c-0.5,0.9-2.9,1.6-4.8,1.3l-1.3-0.5c-1.1-0.6-1.4-1.4-0.9-2.3 s2.8-1.6,4.7-1.3L284.3,187.7z"/><polygon class="st12" points="324.9,197.8 324.9,205.3 321.6,210.3 321.6,202.8 "/><path class="st8" d="M323.3,193.8l-5.2,8c-0.5,0.9-2.1,1.3-3.6,1l-18.9-4.2l-2-0.5l-17.8-4.8l-0.8-0.4c-0.5-0.2-0.7-0.7-0.8-1.2 v11.3c0,0.5,0.3,0.9,0.8,1.2l0.8,0.3l17.8,4.8l2,0.6l18.9,4.1c1.4,0.4,3.1-0.1,3.6-0.9l5.2-8c0.1-0.2,0.2-0.4,0.2-0.6v-11.3 C323.4,193.4,323.4,193.6,323.3,193.8z"/><polygon class="st2" points="324.9,197.8 321.6,202.8 319,202.2 322.3,197.2 "/><polygon class="st11" points="321.6,202.8 321.6,210.3 319,209.7 319,202.2 "/><path class="st1" d="M318.1,201.8c-0.5,0.9-2.1,1.3-3.6,1l-18.9-4.2l-2-0.5l-17.8-4.8l-0.8-0.4c-0.6-0.2-0.9-0.9-0.6-1.5 c0,0,0-0.1,0.1-0.1l4.1-6.3c0.9-0.9,2.2-1.3,3.4-1l18.7,3.1l2.1,0.4l18.9,4.2l1,0.4c0.8,0.5,1.1,1.2,0.7,1.7L318.1,201.8z M280.3,191.3c1.9,0.4,4.1-0.2,4.8-1.3c0.8-1.1,0.1-1.7-0.9-2.3l-1.4-0.5c-1.9-0.4-4.1,0.2-4.7,1.3c-0.7,1.1-0.2,1.7,0.9,2.3 L280.3,191.3"/><path class="st8" d="M334.5,198.9l-3.3,5c-0.6,0.6-1.5,0.8-2.3,0.6l-6.1-1.4l-0.7-0.2c-0.3-0.1-0.6-0.4-0.6-0.8v9.4 c0,0.4,0.2,0.7,0.6,0.8l0.6,0.3l6.1,1.4c0.9,0.2,1.8,0,2.4-0.7l3.3-5c0.1-0.1,0.1-0.3,0.1-0.4v-9.4 C334.6,198.7,334.5,198.8,334.5,198.9z"/><path class="st1" d="M334,197.8c0.6,0.3,0.8,0.7,0.5,1.2l-3.3,5c-0.6,0.6-1.5,0.8-2.3,0.6l-6.1-1.4l-0.7-0.2 c-0.4-0.2-0.7-0.7-0.5-1.1c0,0,0,0,0,0l3.3-5c0.6-0.6,1.5-0.9,2.4-0.7l6.1,1.4L334,197.8z"/><path class="st8" d="M505.2,188v16.8c0,6.1-8,11.2-18.5,11.8c-6.3,0.3-12.2-1.1-16.2-3.5c-4.1-2.4-5.4-4.2-5.9-7 c0-0.1-0.1-0.2-0.1-0.3v-0.3c0-0.2-0.1-0.5-0.1-0.8V189c0.1,0.1,0.1,0.2,0.1,0.3c0.6,2.8,2.7,5.2,5.9,7c5,2.7,10.6,3.8,16.2,3.4 C497.3,199.2,505.2,194.1,505.2,188z"/><path class="st11" d="M441,194.8c-8.1,0.4-20,3.1-32.4,5.9c-22.1,5-47.2,10.7-65.2,6.9l-12.2-2.7v7.5l12.2,2.7c18,4,43-1.7,65.2-6.9 c12.5-2.8,24.2-5.5,32.4-5.9l23.9-1.3v-7.5L441,194.8z"/><path class="st2" d="M464.9,193.5l-23.9,1.3c-8.1,0.4-20,3.1-32.4,5.9c-22.1,5-47.2,10.7-65.2,6.9l-12.2-2.7l3.3-5l12.2,2.7 c14.6,3.2,37.9-2.1,58.4-6.9c13.2-3,25.6-5.8,35.2-6.3l23.9-1.2h0.4C464.4,190,464.6,191.8,464.9,193.5z"/><path class="st1" d="M499.2,179.6c3.2,1.8,5.4,4.3,5.9,7.1v0.4c0.8,6.4-7.4,12.1-18.5,12.6c-5.6,0.5-11.3-0.7-16.2-3.4 c-3.2-1.8-5.3-4.2-5.9-7c0-0.1,0-0.2-0.1-0.3v-0.3c-0.7-6.4,7.4-12,18.5-12.5C488.6,175.8,494.2,176.9,499.2,179.6z"/><path class="st10" d="M126.3,159.8c0.3,0.2,0.3,0.5,0,0.8l-5.3,3c-0.4,0.2-0.9,0.2-1.3,0c-0.2,0-0.4-0.2-0.4-0.4 c0-0.2,0.2-0.4,0.4-0.4l5.2-3C125.3,159.5,125.9,159.5,126.3,159.8z"/><path class="st10" d="M99.9,144.6c0.4,0.3,0.4,0.6,0,0.8l-5.2,3.1c-0.4,0.2-0.9,0.2-1.4,0c-0.3-0.3-0.3-0.6,0-0.8l5.3-3.1 C99.1,144.4,99.5,144.4,99.9,144.6z"/><path class="st10" d="M112.5,152.6c0.2,0.2,0.3,0.5,0.1,0.7c0,0-0.1,0.1-0.1,0.1l-2.6,1.5c-0.4,0.2-0.9,0.2-1.4,0 c-0.4-0.3-0.4-0.6,0-0.8l2.6-1.5C111.5,152.4,112,152.4,112.5,152.6z"/><path class="st13" d="M111.7,140.8l23.7,13.7c0.4,0.2,0.4,0.5,0,0.7c-0.4,0.3-0.9,0.3-1.3,0l-23.7-13.6"/><path class="st2" d="M151.1,152.2c1.4,0.9,1.4,2.2,0,3l-25.5,14.9c-1.6,0.9-3.6,0.9-5.2,0L56,132.8c-1.4-0.8-1.5-2.1-0.1-3L81.4,115 c1.7-0.9,3.6-0.9,5.3,0L151.1,152.2z"/><path class="st14" d="M82.7,124.1c-0.4-0.2-0.9-0.2-1.3,0c-0.2,0-0.4,0.2-0.4,0.4c0,0.2,0.2,0.4,0.4,0.4"/><path class="st14" d="M64.6,133l5.3-3.1c0.2,0,0.4-0.2,0.4-0.4c0-0.2-0.2-0.4-0.4-0.4c-0.4-0.2-0.9-0.2-1.4,0l-5.3,3.1 c-0.2,0.2-0.3,0.5-0.1,0.7c0,0,0.1,0.1,0.1,0.1C63.7,133.2,64.1,133.2,64.6,133"/><path class="st11" d="M94.7,148.4l5.2-3.1c0.4-0.2,0.4-0.5,0-0.8c-0.4-0.2-0.9-0.2-1.3,0l-5.3,3.1c-0.3,0.2-0.3,0.5,0,0.8 C93.8,148.6,94.3,148.6,94.7,148.4"/><path class="st11" d="M121,163.6l5.3-3c0.3-0.3,0.3-0.6,0-0.8c-0.4-0.3-0.9-0.3-1.4,0l-5.2,3c-0.2,0-0.4,0.2-0.4,0.4 c0,0.2,0.2,0.4,0.4,0.4C120.1,163.8,120.6,163.8,121,163.6"/><path class="st14" d="M83.5,139.6l2.6-1.4c0.4-0.3,0.4-0.6,0-0.8c-0.4-0.3-0.9-0.3-1.3,0l-2.7,1.4c-0.3,0.3-0.3,0.6,0.1,0.8 C82.6,139.8,83.1,139.8,83.5,139.6"/><path class="st11" d="M109.9,154.9l2.6-1.5c0.2-0.2,0.3-0.5,0.1-0.7c0,0-0.1-0.1-0.1-0.1c-0.4-0.2-0.9-0.2-1.4,0l-2.6,1.5 c-0.4,0.2-0.4,0.5,0,0.8C108.9,155.1,109.4,155.1,109.9,154.9"/><path class="st15" d="M134.1,155.2c0.4,0.3,0.9,0.3,1.3,0c0.4-0.2,0.4-0.5,0-0.7l-23.7-13.7l-5.2-3l-23.8-13.7 c-0.4-0.2-0.9-0.2-1.3,0c-0.2,0-0.4,0.2-0.4,0.4c0,0.2,0.2,0.4,0.4,0.4l23.7,13.6l5.3,3.1L134.1,155.2"/><path class="st11" d="M69.9,129.1c0.2,0,0.4,0.2,0.4,0.4c0,0.2-0.2,0.4-0.4,0.4l-5.3,3.1c-0.4,0.2-0.9,0.2-1.4,0 c-0.2-0.2-0.3-0.5-0.1-0.7c0,0,0.1-0.1,0.1-0.1l5.3-3.1C69,128.9,69.5,128.9,69.9,129.1z"/><path class="st11" d="M86.1,137.4c0.4,0.2,0.4,0.5,0,0.8l-2.6,1.4c-0.4,0.2-0.9,0.2-1.3,0c-0.4-0.2-0.4-0.5-0.1-0.8l2.7-1.4 C85.2,137.1,85.7,137.1,86.1,137.4z"/><path class="st11" d="M115.7,127.6c0.7,0.5,0.7,1.2,0,1.5l-9.2,5.3c-0.8,0.4-1.8,0.4-2.6,0l-2.6-1.5c-0.8-0.4-0.8-1.1,0-1.4l9.1-5.4 c0.9-0.4,1.9-0.4,2.7,0.1L115.7,127.6z"/><path class="st16" d="M115.7,129.1l-9.2,5.3c-0.8,0.4-1.8,0.4-2.6,0l-2.6-1.5c-0.3-0.1-0.6-0.4-0.6-0.8v9.5c0,0.4,0.2,0.7,0.6,0.8 l2.6,1.4c0.8,0.5,1.8,0.5,2.6,0l9.2-5.3c0.3-0.1,0.4-0.4,0.5-0.7v-9.5C116.1,128.7,116,129,115.7,129.1z"/><path class="st17" d="M365,298.4c0.4,0,0.8,0.3,0.8,0.8c0,0.4-0.3,0.8-0.8,0.8l-6.5,3.8c-0.8,0.5-1.8,0.5-2.6,0l-14.5-8.3 c-0.8-0.5-0.8-1.2,0-1.5l6.5-3.8c0.8-0.5,1.9-0.5,2.7,0L365,298.4z"/><path class="st18" d="M365,299.9l-6.5,3.8c-0.8,0.5-1.8,0.5-2.6,0l-14.5-8.3c-0.3-0.1-0.6-0.4-0.6-0.8v2.2c0,0.4,0.2,0.7,0.6,0.8 l14.5,8.4c0.8,0.4,1.8,0.4,2.6,0l6.5-3.9c0.3-0.1,0.5-0.4,0.6-0.7v-2.3C365.6,299.5,365.3,299.8,365,299.9z"/><path class="st17" d="M383.3,287.8c0.7,0.4,0.7,1.1,0,1.5l-6.6,3.8c-0.8,0.4-1.8,0.4-2.6,0l-14.5-8.3c-0.7-0.5-0.7-1.2,0-1.5 l6.6-3.9c0.8-0.4,1.8-0.4,2.6,0.1L383.3,287.8z"/><path class="st18" d="M383.3,289.3l-6.6,3.8c-0.8,0.4-1.8,0.4-2.6,0l-14.5-8.3c-0.4-0.3-0.5-0.5-0.5-0.8v2.2 c-0.1,0.3,0.1,0.6,0.5,0.8l14.5,8.4c0.8,0.4,1.8,0.4,2.6,0l6.6-3.9c0.3-0.1,0.5-0.4,0.5-0.8v-2.2 C383.8,288.9,383.7,289.2,383.3,289.3z"/><path class="st17" d="M401.6,277.1c0.8,0.4,0.8,1.1,0,1.5l-6.5,3.8c-0.8,0.4-1.8,0.4-2.6,0l-14.5-8.4c-0.8-0.4-0.8-1.1,0-1.4 l6.5-3.9c0.8-0.4,1.8-0.4,2.6,0L401.6,277.1z"/><path class="st18" d="M401.6,278.7l-6.5,3.8c-0.8,0.4-1.8,0.4-2.6,0l-14.5-8.4c-0.3-0.1-0.5-0.4-0.6-0.7v2.2c0,0.4,0.2,0.7,0.6,0.8 l14.4,8.3c0.8,0.5,1.9,0.5,2.7,0l6.5-3.8c0.3-0.1,0.6-0.4,0.6-0.8v-2.2C402.2,278.2,402,278.4,401.6,278.7z"/><path class="st1" d="M419.9,266.5c0.7,0.4,0.7,1.1,0,1.5l-6.6,3.8c-0.8,0.4-1.8,0.4-2.6,0l-14.5-8.4c-0.4-0.1-0.6-0.6-0.5-1 c0.1-0.2,0.2-0.4,0.5-0.5l6.6-3.9c0.8-0.4,1.8-0.4,2.6,0L419.9,266.5z"/><path class="st19" d="M419.9,268.1l-6.6,3.8c-0.8,0.4-1.8,0.4-2.6,0l-14.5-8.4c-0.3-0.1-0.5-0.4-0.5-0.8v2.3c0,0.4,0.2,0.7,0.6,0.8 l14.5,8.3c0.8,0.5,1.8,0.5,2.6,0l6.6-3.8c0.3-0.1,0.5-0.4,0.5-0.8v-2.2C420.4,267.6,420.3,267.8,419.9,268.1z"/><path class="st20" d="M231.2,32.2c0.4,0.3,0.4,0.6,0,0.8l-5.2,3.1c-0.4,0.2-0.9,0.2-1.4,0c-0.2-0.2-0.3-0.5-0.1-0.7 c0,0,0.1-0.1,0.1-0.1l5.3-3.1C230.3,32,230.8,32,231.2,32.2z"/><path class="st19" d="M233.7,35.6v9.5c-0.1,1.5-1,2.8-2.4,3.4c-3.7,1.9-8.1,1.9-11.8,0c-1.6-0.9-2.5-2.1-2.5-3.4v-9.5 c0,1.2,0.8,2.4,2.4,3.4c3.7,1.9,8.2,1.9,11.9,0C232.8,38,233.7,36.9,233.7,35.6z"/><path class="st1" d="M231.2,32.2c3.3,1.9,3.3,5,0.1,6.9c-3.7,1.9-8.2,1.9-11.9,0c-3.3-1.8-3.3-4.9,0-6.9 C223.1,30.3,227.4,30.3,231.2,32.2c-0.4-0.2-0.9-0.2-1.3,0l-5.3,3.1c-0.2,0.2-0.3,0.5-0.1,0.7c0,0,0.1,0.1,0.1,0.1 c0.4,0.2,0.9,0.2,1.4,0l5.2-3.1C231.5,32.7,231.5,32.4,231.2,32.2z"/><path class="st20" d="M254,18.9c0.4,0.2,0.4,0.5,0,0.8l-5.2,3c-0.4,0.2-0.9,0.2-1.4,0c-0.2-0.2-0.3-0.5-0.1-0.7c0,0,0.1-0.1,0.1-0.1 l5.2-3C253.1,18.7,253.6,18.7,254,18.9z"/><path class="st19" d="M256.5,22.3v9.6c0,1.2-0.8,2.4-2.4,3.4c-3.7,1.8-8.1,1.8-11.8,0c-1.6-1-2.5-2.2-2.5-3.5v-9.5 c0,1.3,0.8,2.5,2.4,3.5c3.7,1.8,8.1,1.8,11.8,0C255.7,24.8,256.5,23.6,256.5,22.3z"/><path class="st1" d="M254,18.9c3.3,1.8,3.3,4.9,0,6.9c-3.7,1.8-8.1,1.8-11.8,0c-3.3-1.9-3.3-5,0-6.9C245.9,17,250.3,17,254,18.9 c-0.4-0.2-0.9-0.2-1.4,0l-5.2,3c-0.2,0.2-0.3,0.5-0.1,0.7c0,0,0.1,0.1,0.1,0.1c0.4,0.2,0.9,0.2,1.4,0l5.2-3 C254.4,19.4,254.4,19.1,254,18.9z"/><path class="st20" d="M256.5,43.7c0.4,0.3,0.4,0.6,0,0.8l-7.8,4.5c-0.4,0.3-0.9,0.3-1.4,0c-0.2-0.1-0.3-0.3-0.2-0.5 c0-0.1,0.1-0.1,0.2-0.2l7.9-4.6C255.6,43.6,256.1,43.6,256.5,43.7z"/><path class="st19" d="M260,48.8v9.5c0,1.7-1.2,3.6-3.6,4.9c-4.6,2.7-12.3,2.7-17,0c-2.4-1.4-3.6-3.2-3.6-5v-9.5c0,1.8,1.3,3.6,3.6,5 c4.7,2.7,12.4,2.7,17.1,0C258.9,52.3,260,50.5,260,48.8z"/><path class="st1" d="M256.5,43.7c4.7,2.8,4.7,7.1,0.1,9.9c-4.6,2.8-12.4,2.7-17.1,0c-4.7-2.7-4.7-7.1,0-9.9 C244.2,40.9,251.7,41,256.5,43.7c-0.4-0.2-0.9-0.2-1.3,0l-7.9,4.6c-0.2,0.1-0.3,0.3-0.2,0.5c0,0.1,0.1,0.1,0.2,0.2 c0.4,0.3,0.9,0.3,1.4,0l7.8-4.5C256.8,44.3,256.8,44,256.5,43.7z"/><path class="st20" d="M276.7,32c0.4,0.3,0.4,0.6,0,0.8l-5.2,3.1c-0.4,0.2-0.9,0.2-1.4,0c-0.3-0.2-0.4-0.6,0-0.8l5.2-3.1 C275.8,31.8,276.3,31.8,276.7,32z"/><path class="st19" d="M279.1,35.4v9.5c-0.1,1.5-1,2.8-2.4,3.4c-3.7,1.9-8.1,1.9-11.8,0c-1.6-0.9-2.5-2.1-2.5-3.4v-9.5 c0,1.2,0.8,2.4,2.4,3.4c3.7,1.9,8.1,1.9,11.8,0C278,38.3,279,37,279.1,35.4z"/><path class="st1" d="M276.7,32c3.3,1.9,3.3,5,0,6.9c-3.7,1.9-8.1,1.9-11.8,0c-3.3-1.8-3.3-4.9,0-6.9C268.7,30.1,273,30.1,276.7,32 c-0.4-0.2-0.9-0.2-1.4,0l-5.2,3.1c-0.4,0.2-0.3,0.6,0,0.8c0.4,0.2,0.9,0.2,1.4,0l5.2-3.1C277.1,32.5,277.1,32.3,276.7,32z"/><path class="st20" d="M277.2,58.8c0.4,0.2,0.4,0.5,0,0.8l-5.2,3c-0.4,0.2-0.9,0.2-1.4,0c-0.2,0-0.4-0.2-0.4-0.4 c0-0.2,0.2-0.4,0.4-0.4l0,0l5.2-3C276.3,58.6,276.8,58.6,277.2,58.8z"/><path class="st19" d="M279.6,62.2v9.6c0,1.2-0.8,2.4-2.4,3.4c-3.7,1.8-8.1,1.8-11.8,0c-1.6-1-2.5-2.2-2.5-3.5v-9.5 c0.1,1.5,1,2.8,2.4,3.4c3.7,1.9,8.1,1.9,11.8,0C278.5,65,279.5,63.7,279.6,62.2z"/><path class="st1" d="M277.2,58.8c3.3,1.8,3.3,4.9,0,6.8c-3.7,1.9-8.1,1.9-11.8,0c-3.3-1.8-3.3-4.9,0-6.8 C269.1,56.9,273.5,56.9,277.2,58.8c-0.4-0.2-0.9-0.2-1.4,0l-5.2,3c-0.2,0-0.4,0.2-0.4,0.4c0,0.2,0.2,0.4,0.4,0.4l0,0 c0.4,0.2,0.9,0.2,1.4,0l5.2-3C277.6,59.3,277.6,59,277.2,58.8z"/><path class="st20" d="M300.1,45.5c0.3,0.2,0.4,0.6,0,0.8l-5.2,3c-0.4,0.3-0.9,0.3-1.4,0c-0.4-0.2-0.4-0.5,0-0.7l5.2-3.1 C299.2,45.3,299.7,45.3,300.1,45.5z"/><path class="st19" d="M302.5,49v9.5c0,1.3-0.8,2.4-2.4,3.4c-3.7,1.9-8.1,1.9-11.8,0c-1.6-1-2.5-2.2-2.5-3.5v-9.5 c0,1.3,0.9,2.5,2.5,3.5c3.7,1.8,8.1,1.8,11.8,0C301.7,51.4,302.5,50.1,302.5,49z"/><path class="st1" d="M300.1,45.5c3.3,1.9,3.3,4.9,0,6.9c-3.7,1.8-8.1,1.8-11.8,0c-3.3-1.9-3.3-4.9,0-6.9 C292,43.7,296.4,43.7,300.1,45.5c-0.4-0.2-0.9-0.2-1.4,0l-5.2,3.1c-0.4,0.2-0.4,0.5,0,0.7c0.4,0.3,0.9,0.3,1.4,0l5.2-3 C300.5,46.1,300.4,45.7,300.1,45.5z"/><path class="st2" d="M253.7,92.6c1.4,0.8,1.4,2.1,0,3l-62.7,36.5c-1.7,0.8-3.6,0.8-5.3,0l-64.4-37.3c-1.4-0.9-1.4-2.2,0-3L184,55.3 c1.7-0.8,3.6-0.8,5.3,0L253.7,92.6z"/><path class="st1" d="M150.2,94.1c0.7,0.5,0.7,1.2,0,1.5l-6.6,3.8c-0.8,0.5-1.8,0.5-2.6,0l-13.1-7.5c-0.8-0.5-0.8-1.2,0-1.5l6.5-3.8 c0.8-0.5,1.8-0.5,2.6,0L150.2,94.1z"/><path class="st19" d="M150.2,95.6l-6.6,3.8c-0.8,0.5-1.8,0.5-2.6,0l-13.1-7.5c-0.3-0.1-0.6-0.4-0.6-0.8v2.2c0,0.4,0.2,0.7,0.6,0.8 l13.1,7.6c0.8,0.4,1.8,0.4,2.6,0l6.6-3.8c0.3-0.3,0.5-0.5,0.5-0.8v-2.3C150.7,95.2,150.5,95.4,150.2,95.6z"/><path class="st1" d="M167.2,84.2c0.7,0.5,0.7,1.2,0,1.5l-6.6,3.8c-0.8,0.5-1.8,0.5-2.6,0L144.9,82c-0.8-0.5-0.8-1.2,0-1.5l6.5-3.8 c0.8-0.5,1.8-0.5,2.6,0L167.2,84.2z"/><path class="st19" d="M167.2,85.8l-6.6,3.8c-0.8,0.5-1.8,0.5-2.6,0L144.9,82c-0.4-0.3-0.6-0.5-0.6-0.8v2.2c0,0.4,0.2,0.7,0.6,0.8 l13.1,7.6c0.8,0.4,1.8,0.4,2.6,0l6.6-3.9c0.3-0.1,0.4-0.4,0.5-0.7V85C167.7,85.3,167.5,85.6,167.2,85.8z"/><path class="st17" d="M184.2,74.4c0.7,0.4,0.7,1.1,0,1.5l-6.6,3.8c-0.8,0.4-1.8,0.4-2.6,0L161.9,72c-0.8-0.4-0.8-1.1-0.1-1.4 l6.6-3.9c0.8-0.4,1.8-0.4,2.6,0L184.2,74.4z"/><path class="st18" d="M184.2,75.9l-6.6,3.8c-0.8,0.4-1.8,0.4-2.6,0L161.9,72c-0.3-0.1-0.6-0.4-0.6-0.8v2.3c0,0.4,0.2,0.7,0.6,0.8 l13.1,7.5c0.8,0.5,1.8,0.5,2.6,0l6.6-3.8c0.3-0.2,0.5-0.5,0.5-0.8v-2.2C184.7,75.5,184.5,75.7,184.2,75.9z"/><path class="st1" d="M201.1,64.5c0.8,0.4,0.8,1.1,0.1,1.4l-6.6,3.9c-0.8,0.4-1.8,0.4-2.6,0l-13.1-7.6c-0.8-0.4-0.8-1.1-0.1-1.5 l6.6-3.8c0.8-0.4,1.8-0.4,2.6,0L201.1,64.5z"/><path class="st19" d="M201.2,66l-6.6,3.9c-0.8,0.4-1.8,0.4-2.6,0l-13.1-7.6c-0.3-0.1-0.6-0.4-0.6-0.8v2.3c0,0.3,0.2,0.5,0.5,0.8 L192,72c0.8,0.5,1.8,0.5,2.6,0l6.5-3.8c0.3-0.1,0.6-0.4,0.6-0.8v-2.2C201.6,65.6,201.5,65.8,201.2,66z"/><path class="st1" d="M173.2,107.4c0.8,0.4,0.8,1.1,0,1.5l-6.6,3.8c-0.8,0.4-1.8,0.4-2.6,0l-13.1-7.6c-0.7-0.4-0.8-1.1,0-1.4l6.6-3.9 c0.8-0.4,1.8-0.4,2.6,0L173.2,107.4z"/><path class="st19" d="M173.2,108.9l-6.6,3.8c-0.8,0.4-1.8,0.4-2.6,0l-13.1-7.6c-0.3-0.1-0.5-0.4-0.6-0.7v2.2c0,0.4,0.2,0.7,0.6,0.8 L164,115c0.8,0.4,1.8,0.4,2.6,0l6.6-3.9c0.3-0.1,0.6-0.4,0.6-0.8v-2.2C173.8,108.5,173.5,108.8,173.2,108.9z"/><path class="st17" d="M189.9,97.3c0.7,0.4,0.7,1.1,0,1.5l-6.6,3.8c-0.8,0.4-1.8,0.4-2.6,0L167.6,95c-0.8-0.4-0.8-1.1,0-1.4l6.5-3.9 c0.8-0.4,1.8-0.4,2.6,0L189.9,97.3z"/><path class="st18" d="M189.9,98.9l-6.6,3.8c-0.8,0.4-1.8,0.4-2.6,0L167.6,95c-0.3-0.1-0.6-0.4-0.6-0.8v2.3c0,0.4,0.2,0.7,0.6,0.8 l13.1,7.5c0.8,0.5,1.8,0.5,2.6,0l6.6-3.8c0.3-0.2,0.5-0.5,0.5-0.8v-2.2C190.4,98.4,190.2,98.6,189.9,98.9z"/><path class="st1" d="M206.9,87.5c0.4,0.1,0.6,0.6,0.5,1c-0.1,0.2-0.2,0.4-0.5,0.5l-6.6,3.9c-0.8,0.4-1.8,0.4-2.6,0l-13.1-7.6 c-0.8-0.4-0.8-1.1-0.1-1.5l6.6-3.8c0.8-0.4,1.8-0.4,2.6,0L206.9,87.5z"/><path class="st19" d="M206.9,88.9l-6.6,3.9c-0.8,0.4-1.8,0.4-2.6,0l-13.1-7.6c-0.3-0.1-0.6-0.4-0.6-0.8v2.3c0,0.2,0.2,0.5,0.6,0.8 l13.1,7.5c0.8,0.5,1.8,0.5,2.6,0l6.6-3.8c0.3-0.2,0.5-0.5,0.5-0.8v-2.2C207.3,88.5,207.2,88.8,206.9,88.9z"/><path class="st17" d="M223.8,77.5c0.8,0.5,0.8,1.2,0.1,1.5l-6.6,3.8c-0.8,0.5-1.8,0.5-2.6,0l-13.1-7.5c-0.8-0.5-0.8-1.2-0.1-1.5 l6.6-3.8c0.8-0.5,1.8-0.5,2.6,0L223.8,77.5z"/><path class="st18" d="M223.9,79.1l-6.6,3.8c-0.8,0.5-1.8,0.5-2.6,0l-13.1-7.5c-0.3-0.1-0.6-0.4-0.6-0.8v2.2c0,0.3,0.2,0.6,0.5,0.8 l13.2,7.6c0.8,0.4,1.8,0.4,2.6,0l6.5-3.8c0.4-0.3,0.6-0.5,0.6-0.8v-2.3C224.4,78.6,224.2,78.9,223.9,79.1z"/><path class="st1" d="M196.2,120.7c0.8,0.4,0.8,1.1,0.1,1.4l-6.6,3.9c-0.8,0.4-1.8,0.4-2.6,0l-13.1-7.6c-0.8-0.4-0.8-1.1-0.1-1.5 l6.6-3.8c0.8-0.4,1.8-0.4,2.6,0L196.2,120.7z"/><path class="st19" d="M196.3,122.2l-6.6,3.9c-0.8,0.4-1.8,0.4-2.6,0l-13.1-7.6c-0.3-0.1-0.6-0.4-0.6-0.8v2.3c0,0.3,0.2,0.5,0.5,0.8 l13.2,7.5c0.8,0.5,1.8,0.5,2.6,0l6.5-3.8c0.3-0.1,0.6-0.4,0.6-0.8v-2.2C196.7,121.8,196.5,122,196.3,122.2z"/><path class="st1" d="M213.2,110.8c0.8,0.5,0.8,1.2,0.1,1.5l-6.6,3.9c-0.8,0.4-1.8,0.4-2.6,0l-13.2-7.6c-0.4-0.2-0.6-0.7-0.4-1.2 c0.1-0.2,0.2-0.3,0.4-0.4l6.6-3.8c0.8-0.5,1.8-0.5,2.6,0L213.2,110.8z"/><path class="st19" d="M213.3,112.3l-6.6,3.9c-0.8,0.4-1.8,0.4-2.6,0l-13.2-7.6c-0.3-0.2-0.5-0.5-0.5-0.8v2.2c0,0.3,0.2,0.6,0.5,0.8 l13.2,7.6c0.8,0.4,1.8,0.4,2.6,0l6.5-3.8c0.3-0.1,0.6-0.4,0.6-0.8v-2.3C213.7,111.9,213.6,112.1,213.3,112.3z"/><path class="st1" d="M230.2,100.9c0.8,0.5,0.8,1.2,0,1.5l-6.5,3.8c-0.8,0.5-1.8,0.5-2.6,0l-13.2-7.5c-0.7-0.5-0.7-1.2,0-1.5l6.6-3.8 c0.8-0.5,1.8-0.5,2.6,0L230.2,100.9z"/><path class="st19" d="M230.2,102.5l-6.5,3.8c-0.8,0.5-1.8,0.5-2.6,0l-13.2-7.5c-0.3-0.3-0.5-0.5-0.5-0.8v2.2c0,0.3,0.2,0.6,0.5,0.8 l13.2,7.6c0.8,0.4,1.8,0.4,2.6,0l6.5-3.9c0.3-0.1,0.5-0.4,0.6-0.7v-2.3C230.7,102,230.5,102.3,230.2,102.5z"/><path class="st1" d="M247.2,91.1c0.8,0.4,0.8,1.1,0,1.5l-6.5,3.8c-0.8,0.4-1.8,0.4-2.6,0l-13.2-7.6c-0.4-0.1-0.6-0.6-0.5-1 c0.1-0.2,0.2-0.4,0.5-0.5l6.6-3.9c0.8-0.4,1.8-0.4,2.6,0L247.2,91.1z"/><path class="st19" d="M247.2,92.6l-6.5,3.8c-0.8,0.4-1.8,0.4-2.6,0l-13.2-7.6c-0.3-0.2-0.5-0.5-0.5-0.8v2.3c0,0.3,0.2,0.6,0.5,0.8 l13.1,7.6c0.9,0.4,1.8,0.4,2.7,0l6.5-3.9c0.3-0.1,0.6-0.4,0.6-0.8v-2.2C247.7,92.2,247.5,92.5,247.2,92.6z"/><path d="M1187.8,192.9c4.1,2.4,4.1,6.3,0,8.7L925.9,353.7c-4.7,2.4-10.3,2.4-15,0L612.2,181.3c-4.1-2.4-4.1-6.3,0-8.7L874,20.4 c4.7-2.4,10.3-2.4,15,0L1187.8,192.9z"/><path class="st21" d="M1187.8,178.5c4.2,2.4,4.2,6.3,0.1,8.7l-262,152.2c-4.7,2.4-10.3,2.4-15,0L612.2,167c-4.1-2.4-4.1-6.3,0-8.7 L874,6.1c4.7-2.4,10.3-2.4,15,0L1187.8,178.5z"/><path class="st22" d="M1187.9,187.3l-262,152.2c-4.7,2.4-10.3,2.4-15,0L612.2,167c-2.1-1.2-3.2-2.8-3.2-4.4v14.4 c0,1.6,1.1,3.2,3.2,4.4l298.7,172.4c4.7,2.4,10.3,2.4,15,0l261.9-152.2c2.1-1.2,3.2-2.8,3.2-4.4v-14.4 C1191,184.5,1189.9,186.1,1187.9,187.3z"/><path class="st23" d="M1140.8,179c2.8,1.7,2.8,4.2,0,5.8L923.9,310.9c-3.2,1.6-6.9,1.6-10.1,0l-78-45c-2.8-1.6-2.8-4.2,0-5.8 L1052.7,134c3.2-1.6,6.9-1.6,10.1,0L1140.8,179z"/><path class="st23" d="M1045,124.1c2.8,1.7,2.8,4.2,0,5.8L828.1,256c-3.2,1.6-6.9,1.6-10.1,0l-77.8-45c-2.8-1.6-2.8-4.2-0.1-5.8 l217-126.1c3.2-1.6,6.9-1.6,10.1,0L1045,124.1z"/><path class="st24" d="M908.2,70.9c2.8,1.6,2.8,4.2,0.1,5.8l-23,13.3c-3.2,1.6-6.9,1.6-10.1,0l-46.8-27c-2.8-1.6-2.8-4.2,0-5.8 l22.9-13.3c3.2-1.6,6.9-1.6,10.1,0L908.2,70.9z"/><path class="st25" d="M908.3,76.7l-23,13.3c-3.2,1.6-6.9,1.6-10.1,0l-46.8-27c-1.2-0.5-2-1.6-2.1-2.9v5.8c-0.1,1,0.6,2.1,2.1,2.9 l46.8,27c3.2,1.6,6.9,1.6,10.1,0l22.9-13.3c1.2-0.6,2-1.6,2.2-2.9v-5.8C910.3,75.1,909.5,76.2,908.3,76.7z"/><path class="st26" d="M862.8,97.3c2.8,1.6,2.8,4.2,0.1,5.8l-23,13.3c-3.2,1.6-6.9,1.6-10.1,0l-46.8-27c-2.8-1.6-2.8-4.2,0-5.8 l22.9-13.3c3.2-1.6,6.9-1.6,10.1,0L862.8,97.3z"/><path class="st27" d="M862.9,103.1l-23,13.3c-3.2,1.6-6.9,1.6-10.1,0l-46.8-27c-1.2-0.5-2-1.6-2.1-2.9v5.7c-0.1,1.1,0.6,2.2,2.1,3 l46.8,27c3.2,1.6,6.9,1.6,10.1,0l22.9-13.5c1.2-0.5,2-1.5,2.1-2.8v-5.8C864.7,101.5,864,102.6,862.9,103.1z"/><path class="st24" d="M814,125.7c2.8,1.6,2.8,4.1,0,5.8l-22.9,13.3c-3.2,1.6-6.9,1.6-10.1,0l-46.8-27c-2.8-1.7-2.8-4.2,0-5.8 l22.9-13.3c3.1-1.7,6.9-1.7,10.1,0L814,125.7z"/><path class="st25" d="M814,131.5l-22.9,13.3c-3.2,1.6-6.9,1.6-10.1,0l-46.8-27c-1.2-0.5-2-1.6-2.2-2.9v5.7c0.1,1.3,1,2.4,2.2,2.9 l46.8,27c3.1,1.7,6.9,1.7,10.1,0l22.9-13.3c1.2-0.5,2-1.6,2.1-2.9v-5.7C816,129.9,815.2,131,814,131.5z"/><path class="st24" d="M765.3,153.9c2.8,1.7,2.8,4.2,0,5.8l-22.9,13.3c-3.1,1.7-6.9,1.7-10.1,0l-46.8-27c-2.8-1.6-2.8-4.1-0.1-5.8 l23-13.3c3.2-1.6,6.9-1.6,10.1,0L765.3,153.9z"/><path class="st25" d="M765.3,159.8l-22.9,13.3c-3.1,1.7-6.9,1.7-10.1,0l-46.8-27c-1.2-0.5-2.1-1.6-2.2-2.9v5.8 c0.1,1.3,0.9,2.4,2.1,2.9l46.9,27c3.2,1.6,6.9,1.6,10.1,0l22.9-13.3c1.1-0.5,1.9-1.6,2.1-2.9v-5.8 C767.3,158.1,766.5,159.3,765.3,159.8z"/><path class="st24" d="M1004,125.8c2.7,1.6,2.7,4.2,0,5.8L981,145c-3.2,1.6-6.9,1.6-10.1,0l-46.8-27c-2.8-1.6-2.8-4.2,0-5.8L947,98.8 c3.2-1.6,6.9-1.6,10.1,0L1004,125.8z"/><path class="st25" d="M1004,131.6L981,145c-3.2,1.6-6.9,1.6-10.1,0l-46.8-27c-1.2-0.5-2-1.6-2.1-2.9v5.8c0.1,1.3,0.9,2.4,2.1,2.9 l46.8,27c3.2,1.6,6.9,1.6,10.1,0l23-13.3c1.1-0.6,1.9-1.7,2.1-2.9v-5.8C1005.9,130,1005.1,131.1,1004,131.6z"/><path class="st26" d="M958.4,152.2c2.8,1.6,2.8,4.2,0.1,5.8l-23,13.3c-3.2,1.6-6.9,1.6-10.1,0l-46.8-27c-2.8-1.6-2.8-4.2,0-5.8 l22.9-13.3c3.2-1.6,6.9-1.6,10.1,0L958.4,152.2z"/><path class="st27" d="M958.5,158.1l-23,13.3c-3.2,1.6-6.9,1.6-10.1,0l-46.8-27c-1.2-0.5-2-1.6-2.1-2.9v5.7c0.1,1.3,0.9,2.5,2.1,3 l46.8,27c3.2,1.6,6.9,1.6,10.1,0l23-13.5c1.1-0.5,1.9-1.6,2.1-2.8v-5.8C960.5,156.4,959.7,157.5,958.5,158.1z"/><path class="st24" d="M909.7,180.6c2.8,1.6,2.8,4.1,0,5.8l-22.9,13.3c-3.2,1.6-6.9,1.6-10.1,0l-46.8-27c-2.8-1.7-2.8-4.2,0-5.8 l22.9-13.3c3.1-1.7,6.9-1.7,10.1,0L909.7,180.6z"/><path class="st25" d="M909.7,186.4l-22.9,13.3c-3.2,1.6-6.9,1.6-10.1,0l-46.8-27c-1.2-0.5-2-1.6-2.1-2.9v5.7c0.1,1.3,1,2.4,2.2,2.9 l46.7,27c3.1,1.7,6.9,1.7,10.1,0l22.9-13.3c1.2-0.5,2-1.6,2.1-2.9v-5.7C911.6,184.8,910.8,185.9,909.7,186.4z"/><path class="st24" d="M860.9,208.9c2.8,1.7,2.8,4.2,0,5.8L838,228c-3.1,1.7-6.9,1.7-10.1,0l-46.8-27c-2.8-1.6-2.8-4.1-0.1-5.8 l23-13.3c3.2-1.6,6.9-1.6,10.1,0L860.9,208.9z"/><path class="st25" d="M860.9,214.7L838,228c-3.1,1.7-6.9,1.7-10.1,0l-46.8-27c-1.2-0.5-2.1-1.6-2.2-2.9v5.8c0.1,1.3,0.9,2.4,2.1,2.9 l46.9,27c3.2,1.6,6.9,1.6,10.1,0l22.9-13.3c1.2-0.5,2-1.6,2.1-2.9v-5.8C862.9,213.1,862.1,214.2,860.9,214.7z"/><path class="st24" d="M1099.7,180.7c2.7,1.6,2.8,4.2,0,5.8l-23,13.3c-3.1,1.6-6.8,1.6-9.9,0l-46.9-27c-2.8-1.6-2.8-4.2,0-5.8 l22.9-13.3c3.2-1.6,6.9-1.6,10.1,0L1099.7,180.7z"/><path class="st25" d="M1099.7,186.5l-23,13.3c-3.1,1.6-6.8,1.6-9.9,0l-46.9-27c-1.1-0.5-1.9-1.6-2.1-2.9v5.7c0.1,1.3,0.9,2.5,2.1,3 l46.8,27c3.2,1.6,6.9,1.6,10.1,0l23-13.3c1.1-0.6,1.9-1.7,2.1-2.9v-5.8C1101.6,184.9,1100.8,186,1099.7,186.5z"/><path class="st24" d="M1054.2,207.2c2.7,1.6,2.8,4.2,0,5.8l-23,13.3c-3.1,1.6-6.8,1.6-9.9,0l-46.9-27c-2.8-1.6-2.8-4.2,0-5.8 l22.9-13.3c3.2-1.6,6.9-1.6,10.1,0L1054.2,207.2z"/><path class="st25" d="M1054.2,213l-23,13.3c-3.1,1.6-6.8,1.6-9.9,0l-46.9-27c-1.1-0.5-1.9-1.6-2.1-2.9v5.7c0.1,1.3,0.9,2.5,2.1,3 l46.8,27c3.2,1.6,6.9,1.6,10.1,0l23-13.5c1.1-0.5,1.9-1.6,2.1-2.8v-5.8C1056.1,211.3,1055.3,212.4,1054.2,213z"/><path class="st26" d="M1005.3,235.5c2.8,1.6,2.8,4.1,0.1,5.8l-23,13.3c-3.2,1.6-6.9,1.6-10.1,0l-46.8-27c-2.8-1.7-2.8-4.2,0-5.8 l22.9-13.3c3.1-1.7,6.9-1.7,10.1-0.1L1005.3,235.5z"/><path class="st27" d="M1005.5,241.3l-23,13.3c-3.2,1.6-6.9,1.6-10.1,0l-46.8-27c-1.2-0.5-2-1.6-2.1-2.9v5.7c0.1,1.3,1,2.4,2.2,2.9 l46.8,27c3.1,1.7,6.9,1.7,10.1,0l22.9-13.3c1.2-0.5,2-1.6,2.1-2.9v-5.7C1007.4,239.7,1006.6,240.8,1005.5,241.3z"/><path class="st24" d="M956.6,263.8c2.8,1.7,2.8,4.2,0,5.8l-22.9,13.3c-3.1,1.7-6.9,1.7-10.1,0l-46.8-27c-2.8-1.6-2.8-4.1-0.1-5.8 l23-13.3c3.2-1.6,6.9-1.6,10.1,0L956.6,263.8z"/><path class="st25" d="M956.6,269.6l-22.9,13.3c-3.1,1.7-6.9,1.7-10.1,0l-46.8-27c-1.2-0.5-2.1-1.6-2.2-2.9v5.8c0,1.1,0.7,2,2.2,2.9 l46.8,27c3.2,1.6,6.9,1.6,10.1,0l22.9-13.3c1.2-0.5,2-1.6,2.1-2.9v-5.8C958.6,268,957.8,269.1,956.6,269.6z"/><polygon class="st28" points="1724.3,162.7 1465,313.4 1200,160.3 1459.2,9.6 "/><path class="st29" d="M1747.4,176c69.8,40.3,70.2,105.7,0.9,146s-182.3,40.3-252.1,0s-70.2-105.7-0.8-146S1677.6,135.7,1747.4,176z" /><path class="st43" d="M1800,249.5v2.4c-0.1,26.3-17.3,52.4-51.8,72.5c-69.3,40.3-182.2,40.3-252,0c-35.1-20.3-52.6-46.9-52.5-73.5 v-2.4c-0.1,26.6,17.4,53.3,52.5,73.6c69.8,40.3,182.7,40.3,252.1,0C1782.7,302,1799.9,275.8,1800,249.5z"/><path class="st30" d="M1673.1,220.4c28.4,16.4,28.5,43.1,0.2,59.5s-74.3,16.5-102.8,0c-28.5-16.5-28.6-43.1-0.3-59.5 C1598.5,204,1644.6,204,1673.1,220.4z"/><path class="st31" d="M1664,225.7c23.4,13.5,23.5,35.4,0.2,49c-23.3,13.6-61.2,13.6-84.7,0s-23.5-35.5-0.2-49 C1602.7,212.3,1640.5,212.2,1664,225.7z"/><path class="st32" d="M1624.8,248.5c1.7,0.9,1.7,2.5,0.1,3.5c-1.9,0.9-4.2,0.9-6.1,0c-1.7-1-1.7-2.6,0-3.5 C1620.6,247.5,1622.9,247.5,1624.8,248.5z"/><polygon class="st33" points="1465,309.1 1465,313.4 1200,160.3 1200,156 "/><polygon class="st34" points="1724.3,158.4 1465,309.1 1200,156 1459.2,5.4 "/><path class="st32" d="M1482,170.2l-1.7,1l-11-6.2c-0.4,0.3-0.7,0.7-0.9,1.1c-0.2,0.3-0.3,0.7-0.2,1.1c0,0.4,0.2,0.9,0.5,1.2l1.4,1 l1.4,0.7l1.5,0.5l1.6,0.2c0.5,0.1,1.1,0.1,1.6,0v2.5h-2l-2.4-0.3c-0.8-0.2-1.7-0.4-2.5-0.7l-2.5-1.1c-1.1-0.6-2-1.3-2.8-2.3 c-0.5-0.7-0.8-1.6-0.9-2.5c0-0.9,0.3-1.7,0.8-2.4c0.6-0.8,1.4-1.5,2.4-2l0.7-0.3c1.2-0.7,2.5-1.3,3.8-1.7c1.4-0.4,2.8-0.5,4.2-0.6 c1.4,0,2.8,0.1,4.2,0.5c1.3,0.3,2.6,0.8,3.7,1.5c0.9,0.5,1.8,1.2,2.5,2c0.5,0.6,0.8,1.4,0.7,2.3c0,0.9-0.4,1.7-1,2.3 C1484,168.8,1483.1,169.6,1482,170.2z M1479.1,167.2l0.3-0.2c0.4-0.2,0.7-0.5,0.9-0.8c0.2-0.3,0.3-0.6,0.3-0.9c0-0.4-0.1-0.7-0.3-1 c-0.3-0.4-0.7-0.7-1.1-0.9c-0.4-0.3-0.9-0.6-1.5-0.7h-1.7c-0.6,0-1.2,0-1.8,0.2c-0.7,0.1-1.3,0.3-1.9,0.6l6.8,3.8"/><polygon class="st32" points="1471.5,155.3 1469,156.8 1449.7,157.5 1459.1,162.9 1455.8,164.8 1440.8,156.1 1443.3,154.6 1462.4,154 1453.6,148.9 1457,146.9 "/><polygon class="st32" points="1436.3,149.7 1440.7,152.2 1437.3,154.1 1424.3,146.5 1427.5,144.6 1432.1,147.3 1441.4,141.8 1436.8,139.2 1440.1,137.3 1448.8,142.3 "/><path class="st32" d="M1429.1,130.5c1,0.6,1.8,1.3,2.6,2c0.6,0.5,1,1.2,1.2,1.9c0.1,0.6,0,1.2-0.2,1.7c-0.4,0.6-0.9,1.1-1.6,1.5 l-4.1-2.4c0.5-0.2,0.8-0.7,0.7-1.2c0-0.6-0.6-1.1-1.6-1.7c-0.8-0.5-1.8-0.8-2.7-1c-0.7-0.1-1.4,0-2,0.3l-0.5,0.5 c-0.1,0.2-0.1,0.5,0,0.7c0.1,0.3,0.3,0.6,0.6,0.8l1.4,1.1l2,1.9c0.5,0.5,0.9,1.1,1.2,1.8c0.2,0.5,0.2,1.1,0,1.6 c-0.3,0.6-0.8,1.1-1.5,1.5c-0.8,0.4-1.6,0.7-2.5,0.9h-2.9c-1.1-0.1-2.2-0.3-3.3-0.7c-1.2-0.4-2.3-1-3.4-1.6c-1-0.5-1.9-1.2-2.7-2 c-0.5-0.6-0.9-1.3-1.1-2c-0.1-0.7,0-1.3,0.3-1.9c0.4-0.6,0.9-1,1.5-1.4l4,2.3c-0.4,0.2-0.7,0.5-0.8,0.9c-0.1,0.3-0.1,0.6,0,0.9 l0.8,0.8c0.3,0.4,0.7,0.7,1.1,0.9c0.9,0.5,1.8,0.9,2.8,1c0.7,0.1,1.4,0,2-0.2l0.5-0.5c0.1-0.2,0-0.5-0.1-0.7 c-0.2-0.4-0.4-0.7-0.7-0.9c-0.4-0.5-0.9-1-1.5-1.4c-0.7-0.6-1.3-1.2-1.8-1.9c-0.5-0.5-0.8-1.1-1-1.7c-0.1-0.5-0.1-1.1,0.1-1.6 c0.3-0.5,0.8-1,1.4-1.2c0.7-0.5,1.5-0.8,2.3-0.9h2.9c1.1,0.1,2.2,0.3,3.3,0.7C1427,129.6,1428.1,130,1429.1,130.5z"/><path class="st32" d="M1447.6,138.7c0-0.2,0-0.5,0.2-0.7c0.1-0.3,0.4-0.5,0.7-0.6l1-0.5h2.4l1.1,0.5c0.8,0.5,1.1,0.9,1.1,1.4 c0,0.6-0.3,1.2-0.9,1.4c-0.7,0.4-1.4,0.5-2.2,0.5c-0.8,0.1-1.7-0.1-2.4-0.6c-0.3-0.2-0.6-0.4-0.8-0.7 C1447.7,139.2,1447.6,138.9,1447.6,138.7z"/><path class="st32" d="M1517.4,172.8c0.3,0.5,0.5,1,0.7,1.6c0.1,0.7,0.1,1.4,0,2c-0.1,0.8-0.4,1.5-0.7,2.3c-0.4,0.8-1,1.6-1.6,2.4 c-0.7,0.9-1.6,1.7-2.5,2.5c-1.1,0.9-2.3,1.7-3.5,2.4l-0.3,0.2c-1.3,0.8-2.7,1.4-4.1,2c-1.4,0.6-2.8,1-4.3,1.4 c-1.4,0.4-2.8,0.7-4.2,0.9l-3.8,0.5h-3.4l-2.8-0.3l1.4-1.8c1.1,0.1,2.3,0.1,3.4,0l4.2-0.7c1.5-0.3,3.1-0.9,4.8-1.5 c1.8-0.8,3.5-1.6,5.2-2.6l0.5-0.2c1.5-0.9,3-1.9,4.3-3.1c1-0.8,1.9-1.8,2.6-2.8c0.6-0.7,1-1.5,1.2-2.4c0.2-0.6,0.2-1.3,0-1.9 L1517.4,172.8z"/><path class="st32" d="M1509.8,168.3l-1.5,1.8c-1.1-0.1-2.3-0.1-3.4,0l-4.1,0.7c-1.6,0.4-3.2,0.9-4.8,1.5c-1.8,0.8-3.6,1.6-5.3,2.6 l-0.3,0.2c-1.6,0.9-3.1,1.9-4.4,3.1c-1,0.8-1.8,1.7-2.6,2.7c-0.5,0.7-0.9,1.5-1.1,2.4c-0.2,0.7-0.2,1.4-0.1,2l-2.9,0.8 c-0.3-0.5-0.6-1-0.7-1.6c-0.1-0.6-0.1-1.3,0-1.9c0.1-0.8,0.4-1.5,0.7-2.3c0.4-0.8,1-1.6,1.6-2.4l2.5-2.5c1.2-0.9,2.4-1.7,3.6-2.4 l0.3-0.2c1.4-0.8,2.7-1.5,4.2-2c1.4-0.6,2.8-1.1,4.3-1.5c1.3-0.4,2.7-0.7,4.1-0.9c1.3-0.3,2.6-0.4,3.8-0.5h3.3 C1508,168,1508.9,168.2,1509.8,168.3z"/><polygon class="st35" points="1724.3,158.4 1724.3,162.7 1720.5,160.5 "/><path class="st36" d="M2387.4,194.7c4.8,2.8,4.8,7.2,0.1,9.9l-231.2,134.3c-5.3,2.8-11.7,2.8-17,0l-326.7-188.6 c-4.8-2.8-4.8-7.2,0-9.9L2043.7,6.1c4.7-2.8,12.3-2.7,17.1,0L2387.4,194.7z"/><path class="st37" d="M2387.5,204.6l-231.2,134.3c-5.3,2.8-11.7,2.8-17,0l-326.7-188.6c-2.3-1.4-3.6-3.3-3.6-5v15 c0,1.7,1.2,3.6,3.6,5l326.6,188.6c4.8,2.7,12.5,2.7,17.1,0l231.1-134.3c2-0.9,3.3-2.7,3.6-4.9v-15 C2391,201.4,2389.8,203.3,2387.5,204.6z"/><path class="st38" d="M1957.4,125.3c0.9,0.6,0.9,1.5,0,2c-1.1,0.6-2.4,0.6-3.5,0l-6.8-4c-0.9-0.5-0.9-1.4,0-2c1.1-0.5,2.3-0.5,3.4,0 L1957.4,125.3z"/><path class="st38" d="M1925.1,146.1c1,0.5,1,1.4,0.1,2c-1.1,0.5-2.4,0.5-3.5,0l-13.6-7.9c-0.9-0.6-0.9-1.5,0-2 c1.1-0.6,2.3-0.6,3.4,0L1925.1,146.1z"/><path class="st38" d="M2054.8,181.6c1,0.6,1,1.4,0,2c-1.1,0.6-2.3,0.6-3.4,0l-6.9-4c-0.9-0.6-0.9-1.4,0-2c1.1-0.6,2.4-0.6,3.5,0 L2054.8,181.6z"/><path class="st38" d="M2022.6,202.4c0.9,0.6,0.9,1.4,0,2c-1.1,0.6-2.3,0.6-3.4,0l-13.7-7.9c-0.9-0.5-0.9-1.4,0-2 c1.1-0.5,2.3-0.5,3.4,0L2022.6,202.4z"/><path class="st38" d="M2220.4,198.4c0.9,0.6,0.9,1.4,0,2c-1.1,0.6-2.3,0.6-3.4,0l-6.9-4c-0.9-0.6-0.9-1.4,0-2c1.1-0.5,2.3-0.5,3.4,0 L2220.4,198.4z"/><path class="st38" d="M2152.4,237.9c0.6,0.3,0.8,1,0.5,1.6c-0.1,0.2-0.3,0.4-0.5,0.5c-1.1,0.5-2.3,0.5-3.4,0l-6.9-4 c-0.9-0.6-0.9-1.5,0-2c1.1-0.6,2.3-0.6,3.4,0L2152.4,237.9z"/><path class="st38" d="M2254.3,178.6c0.9,0.6,0.9,1.5,0,2c-1.1,0.6-2.3,0.6-3.4,0l-13.7-7.8c-0.9-0.6-0.9-1.5,0-2 c1.1-0.6,2.3-0.6,3.4,0L2254.3,178.6z"/><path class="st38" d="M2120.1,258.7c0.9,0.5,0.9,1.4,0,2c-1.1,0.5-2.4,0.5-3.5,0l-13.6-7.9c-0.9-0.6-0.9-1.5,0-2 c1.1-0.6,2.3-0.6,3.4,0L2120.1,258.7z"/><path class="st38" d="M2025.4,85.8c0.9,0.6,0.9,1.4,0,2c-1.1,0.6-2.4,0.6-3.5,0l-6.8-4c-0.9-0.6-0.9-1.4,0-2c1.1-0.6,2.3-0.6,3.4,0 L2025.4,85.8z"/><path class="st38" d="M1993.1,106.6c0.9,0.6,0.9,1.4,0,2c-1.1,0.6-2.4,0.6-3.5,0l-13.6-7.9c-0.9-0.6-0.9-1.4,0-2 c1.1-0.5,2.3-0.5,3.4,0L1993.1,106.6z"/><path class="st38" d="M2122.8,142.2c0.9,0.5,0.9,1.4,0,2c-1.1,0.5-2.3,0.5-3.4,0l-6.9-4c-0.9-0.6-0.9-1.5,0-2c1.1-0.6,2.4-0.6,3.5,0 L2122.8,142.2z"/><path class="st39" d="M2126,80.8c3.7,2.2,3.7,5.8,0,7.9l-166.6,96.8c-4.3,2.2-9.3,2.2-13.6,0l-66.7-38.5c-3.7-2.2-3.8-5.7,0-7.9 l166.5-96.7c4.3-2.2,9.4-2.2,13.7,0L2126,80.8z M1949,161.8l136-79c0.5,0,0.9-0.4,0.9-0.9c0-0.5-0.4-0.9-0.9-0.9 c-1.1-0.6-2.3-0.6-3.4,0l-136,78.9c-0.9,0.6-0.9,1.5,0,2C1946.7,162.4,1948,162.4,1949,161.8 M2042.3,58.1c-0.9,0.6-0.9,1.5,0,2 l13.6,7.9c1.1,0.6,2.4,0.6,3.5,0c0.9-0.5,0.9-1.4,0-2l-13.7-7.9C2044.6,57.7,2043.3,57.7,2042.3,58.1 M1921.7,148.1 c1.1,0.5,2.4,0.5,3.5,0c0.9-0.6,0.9-1.5-0.1-2l-13.6-7.9c-1.1-0.6-2.3-0.6-3.4,0c-0.9,0.5-0.9,1.4,0,2L1921.7,148.1 M1989.7,108.5 c1.1,0.6,2.4,0.6,3.5,0c0.9-0.6,0.9-1.4,0-2l-13.7-7.9c-1.1-0.5-2.3-0.5-3.4,0c-0.9,0.6-0.9,1.4,0,2L1989.7,108.5 M1947.2,121.3 c-0.9,0.6-0.9,1.5,0,2l6.8,4c1.1,0.6,2.4,0.6,3.5,0c0.9-0.5,0.9-1.4,0-2l-6.9-4C1949.5,120.9,1948.2,120.9,1947.2,121.3 M2025.4,87.8c0.9-0.6,0.9-1.4,0-2l-6.9-4c-1.1-0.6-2.3-0.6-3.4,0c-0.9,0.6-0.9,1.4,0,2l6.8,4C2023,88.4,2024.3,88.4,2025.4,87.8"/><path class="st40" d="M2085,80.9c0.5,0,0.9,0.4,0.9,0.9c0,0.5-0.4,0.9-0.9,0.9l-136,79c-1.1,0.6-2.3,0.6-3.4,0c-0.9-0.5-0.9-1.4,0-2 l136-78.9C2082.7,80.4,2083.9,80.4,2085,80.9z"/><path class="st38" d="M2090.6,162.9c0.9,0.5,0.9,1.4,0,2c-1.1,0.5-2.3,0.5-3.4,0l-13.7-7.9c-0.9-0.6-0.9-1.4,0-2 c1.1-0.6,2.4-0.6,3.5,0L2090.6,162.9z"/><path class="st40" d="M2182.5,137.2c0.9,0.6,0.9,1.4,0,2l-136,79c-1.1,0.6-2.3,0.6-3.4,0c-1-0.6-1-1.4-0.1-2l136-79 C2180.1,136.6,2181.4,136.6,2182.5,137.2z"/><path class="st38" d="M2188.1,219.1c0.9,0.6,0.9,1.5,0,2c-1.1,0.6-2.4,0.6-3.5,0l-13.6-7.9c-0.9-0.5-0.9-1.4,0-2 c1.1-0.5,2.3-0.5,3.4,0L2188.1,219.1z"/><path class="st39" d="M2223.4,137.2c3.8,2.2,3.8,5.7,0.1,7.9l-166.6,96.7c-4.3,2.2-9.3,2.2-13.6,0l-66.7-38.4 c-3.8-2.2-3.8-5.8-0.1-7.9l166.6-96.8c4.3-2.2,9.3-2.2,13.6,0L2223.4,137.2z M2046.6,218.2l136-79c0.9-0.6,0.9-1.4,0-2 c-1.1-0.6-2.4-0.6-3.5,0l-136,79c-0.9,0.6-0.9,1.4,0.1,2C2044.2,218.8,2045.5,218.8,2046.6,218.2 M2139.7,114.5 c-0.9,0.6-0.9,1.4,0.1,2l13.6,7.9c1.1,0.6,2.3,0.6,3.4,0c1-0.6,0.9-1.4,0-2l-13.6-7.9C2142.1,113.9,2140.8,113.9,2139.7,114.5 M2019.2,204.3c1.1,0.6,2.3,0.6,3.4,0c0.9-0.6,0.9-1.4,0-2l-13.7-7.9c-1.1-0.5-2.3-0.5-3.4,0c-0.9,0.6-0.9,1.5,0,2L2019.2,204.3 M2087.2,164.9c1.1,0.5,2.3,0.5,3.4,0c0.9-0.6,0.9-1.5,0-2L2077,155c-1.1-0.6-2.4-0.6-3.5,0c-0.9,0.6-0.9,1.4,0,2L2087.2,164.9 M2044.6,177.7c-0.9,0.6-0.9,1.4,0,2l6.9,4c1.1,0.6,2.3,0.6,3.4,0c1-0.6,1-1.4,0-2l-6.8-4C2047,177.1,2045.7,177.1,2044.6,177.7 M2122.8,144.2c0.9-0.6,0.9-1.5,0-2l-6.8-4c-1.1-0.6-2.4-0.6-3.5,0c-0.9,0.5-0.9,1.4,0,2l6.9,4 C2120.5,144.6,2121.7,144.6,2122.8,144.2"/><path class="st39" d="M2320.9,193.5c3.8,2.1,3.8,5.7,0,7.9l-166.5,96.7c-4.3,2.2-9.4,2.2-13.7,0l-66.7-38.5c-3.7-2.2-3.7-5.7,0-7.9 l166.6-96.7c4.3-2.2,9.3-2.2,13.6,0L2320.9,193.5z M2144,274.4l136-78.9c1-0.6,0.9-1.5,0-2c-1.1-0.6-2.3-0.6-3.4,0l-136,79 c-0.5,0-0.9,0.4-0.9,0.9c0,0.5,0.4,0.9,0.9,0.9C2141.7,275,2142.9,275,2144,274.4 M2237.2,170.8c-0.9,0.5-0.9,1.4,0,2l13.7,7.8 c1.1,0.6,2.3,0.6,3.4,0c0.9-0.5,0.9-1.4,0-2l-13.7-7.8C2239.6,170.2,2238.3,170.2,2237.2,170.8 M2116.6,260.7c1.1,0.5,2.4,0.5,3.5,0 c0.9-0.6,0.9-1.5,0-2l-13.7-7.9c-1.1-0.6-2.3-0.6-3.4,0c-0.9,0.5-0.9,1.4,0,2L2116.6,260.7 M2184.6,221.1c1.1,0.6,2.4,0.6,3.5,0 c0.9-0.5,0.9-1.4,0-2l-13.7-7.9c-1.1-0.5-2.3-0.5-3.4,0c-0.9,0.6-0.9,1.5,0,2L2184.6,221.1 M2142.1,234c-0.9,0.5-0.9,1.4,0,2l6.9,4 c1.1,0.5,2.3,0.5,3.4,0c0.6-0.3,0.8-1,0.5-1.6c-0.1-0.2-0.3-0.4-0.5-0.5l-6.9-3.8C2144.5,233.4,2143.2,233.4,2142.1,234 M2220.4,200.4c0.9-0.6,0.9-1.4,0-2l-6.9-4c-1.1-0.5-2.3-0.5-3.4,0c-0.9,0.6-0.9,1.4,0,2l6.9,4C2218,201,2219.3,201,2220.4,200.4"/><path class="st40" d="M2280,193.5c-1.1-0.6-2.3-0.6-3.4,0l-136,79c-0.5,0-0.9,0.4-0.9,0.9c0,0.5,0.4,0.9,0.9,0.9 c1.1,0.6,2.3,0.6,3.4,0l136-78.9C2281,194.9,2280.9,194,2280,193.5z"/><path class="st38" d="M2059.4,66c0.9,0.6,0.9,1.5,0,2c-1.1,0.6-2.4,0.6-3.5,0l-13.6-7.9c-0.9-0.5-0.9-1.4,0-2c1.1-0.5,2.3-0.5,3.4,0 L2059.4,66z"/><path class="st38" d="M2156.8,122.4c0.9,0.6,1,1.4,0,2c-1.1,0.6-2.3,0.6-3.4,0l-13.6-7.9c-1-0.6-1-1.4-0.1-2c1.1-0.6,2.4-0.6,3.5,0 L2156.8,122.4z"/><path class="st41" d="M2018.1,114.2c1.9,1,1.9,2.8,0,4l-10.2,5.9c-2.1,1-4.6,1-6.8,0l-24-13.9c-1.9-1.2-1.9-2.9,0-4l10.1-5.9 c2.2-1,4.7-1,6.9,0L2018.1,114.2z"/><path class="st42" d="M2018.1,118.2l-10.2,5.9c-2.1,1-4.6,1-6.8,0l-24-13.9c-0.8-0.4-1.3-1.1-1.4-2V128c0,0.7,0.5,1.4,1.5,2 l23.9,13.7c2.1,1.2,4.7,1.2,6.9,0l10.1-5.8c0.8-0.4,1.3-1.1,1.4-2v-19.7C2019.4,117.1,2018.8,117.8,2018.1,118.2z"/><path class="st41" d="M2167.5,140.8c1.9,1,1.9,2.8,0,3.8l-10.1,5.9c-2.1,1.2-4.7,1.2-6.9,0l-24-13.7c-1.9-1.2-1.9-2.9,0-4l10.2-5.9 c2.1-1.2,4.7-1.2,6.8,0L2167.5,140.8z"/><path class="st42" d="M2167.5,144.6l-10.1,5.9c-2.1,1.2-4.7,1.2-6.9,0l-24-13.7c-0.8-0.4-1.3-1.1-1.4-2v19.6c0,0.9,0.6,1.7,1.4,2 l24,13.9c2.1,1.2,4.7,1.2,6.8,0l10.2-5.9c0.8-0.3,1.3-1,1.4-1.9v-19.7C2168.8,143.6,2168.3,144.3,2167.5,144.6z"/><path class="st41" d="M2247.1,205.8c1.9,1,1.9,2.8,0,4l-10.2,5.9c-2.1,1-4.6,1-6.8,0l-24-13.9c-1.9-1-1.9-2.9,0-4l10.1-5.9 c2.2-1,4.7-1,6.9,0L2247.1,205.8z"/><path class="st42" d="M2247.1,209.8l-10.2,5.9c-2.1,1-4.6,1-6.8,0l-24-13.9c-0.8-0.4-1.3-1.1-1.4-2v19.7c0.1,0.9,0.6,1.6,1.4,2 l24,13.9c2.2,1,4.7,1,6.9,0l10.1-5.9c0.8-0.4,1.3-1.1,1.4-2v-19.7C2248.4,208.7,2247.9,209.4,2247.1,209.8z"/></svg>
